<svg width="156" height="86" viewBox="0 0 156 86" fill="none" xmlns="http://www.w3.org/2000/svg">
<path d="M84.8412 29.938C86.9373 29.261 87.1553 28.8325 88.846 22.0668C90.6637 14.7924 92.2047 12.4721 93.5377 15.0024C93.9214 15.7308 94.9783 19.7356 95.8865 23.9022C97.7034 32.2376 97.8698 32.4027 104.793 32.7456C107.086 32.8591 108.893 32.4699 109.518 31.7277C110.076 31.0667 110.812 28.0279 111.156 24.9749C111.932 18.0729 112.771 15.3402 114.081 15.4412C115.286 15.5342 116.365 18.088 117.812 24.2735C119.417 31.1325 119.983 31.9813 123.265 32.4595C124.771 32.679 127.156 32.3624 128.565 31.7559C131.117 30.6578 131.124 30.6373 130.309 26.7817C129.766 24.2113 128.283 20.7289 126.403 17.198C122.781 10.3959 117.687 3.41354 114.998 2.42345C112.335 1.44264 109.79 3.12895 107.627 7.30729C106.637 9.2203 105.504 11.9272 105.11 13.3227C104.209 16.5135 104.098 16.6326 102.818 15.7888C102.24 15.4077 101.341 13.4306 100.821 11.3952C100.3 9.35978 99.0908 6.2315 98.1327 4.44347C96.6776 1.7279 96.1148 1.2052 94.7158 1.2698C90.3534 1.47127 86.4598 7.95143 83.2188 20.4047C80.6472 30.2856 80.8097 31.2402 84.8412 29.938ZM74.7343 30.9003C76.2854 29.028 78.1798 12.5763 77.5098 6.79339C76.9545 2.00024 75.6256 0.576638 71.8319 0.711236C69.6834 0.787472 69.3066 1.05256 68.8825 2.78626C68.391 4.79546 69.1422 20.2304 70.0699 27.1851C70.6564 31.582 72.7727 33.2676 74.7343 30.9003ZM38.3764 29.8911C38.2292 21.7319 40.1331 9.75276 41.7177 8.8668C42.3798 8.49659 44.997 8.51163 47.5338 8.90021L52.146 9.60675L53.0928 12.7546C54.5204 17.5015 54.9558 32.0924 53.7001 33.1063C52.5004 34.0749 40.5132 34.7079 39.2417 33.8698C38.8 33.5787 38.4106 31.7882 38.3764 29.8911ZM29.9165 42.7731C31.4119 42.8122 32.2994 42.3139 33.1151 40.9772C34.0448 39.4536 35.1054 39.0475 39.1251 38.6759C46.5895 37.9859 61.6219 39.5959 64.1108 41.3519C65.2506 42.1561 66.9166 42.7801 67.813 42.7387C70.4533 42.6168 70.49 38.3849 67.8886 34.0427C66.3286 31.4389 65.2055 26.8734 63.9367 17.9778C62.5208 8.0502 61.7295 5.03325 60.0025 2.97854C57.9042 0.481922 57.6837 0.398936 52.485 0.14848C43.138 -0.301815 39.4491 0.233204 37.725 2.28927C35.7093 4.693 32.2077 19.1508 31.7751 26.8557C31.4809 32.0948 31.0959 33.3108 28.9102 35.9036C27.2714 37.8477 26.4779 39.4615 26.6495 40.5015C26.9748 42.4732 27.308 42.705 29.9165 42.7731Z" fill="white"/>
<path d="M30.5312 81.5907C30.0089 78.502 27.7144 77.9962 19.4538 79.1486C7.55 80.8092 5.56312 79.3278 6.04219 69.1492C6.39664 61.6185 6.0016 61.812 20.1021 62.2577C25.3787 62.4245 30.1447 62.2037 30.6931 61.7668C31.2415 61.3301 31.8621 59.8098 32.0722 58.3884C32.3821 56.2913 32.0763 55.576 30.45 54.5948C27.8065 53 17.5105 52.1173 11.525 52.9723C2.2301 54.3001 -0.612495 59.0325 1.02224 70.4573C3.01217 84.3645 3.85549 85.3558 14.0541 85.775C21.8805 86.0967 28.6713 85.5206 30.0563 84.4178C30.5182 84.0499 30.7319 82.7777 30.5312 81.5907ZM42.5889 81.8057C43.3288 79.1662 45.2832 57.5553 45.0017 55.1262C44.8243 53.5954 44.4042 53.3657 41.4028 53.1587C39.5339 53.0299 37.7424 53.1335 37.4218 53.3887C35.9417 54.5675 37.0704 83.0935 38.6598 84.6769C40.017 86.0289 41.7627 84.7532 42.5889 81.8057ZM67.5452 68.136C64.6576 68.4902 61.099 68.3742 59.6373 67.8782C57.0965 67.0159 56.987 66.859 57.1472 64.307C57.3086 61.7362 57.4189 61.6138 60.1367 60.9898C64.4455 60.0004 71.7774 60.2559 72.9627 61.4367C74.0017 62.4717 74.2157 66.3608 73.2749 67.1101C73.0113 67.32 70.4329 67.7817 67.5452 68.136ZM78.9797 69.4312C79.9164 65.8302 79.3808 58.8779 77.9657 56.2701C76.1933 53.004 72.0688 51.6883 64.7718 52.0615C58.821 52.3658 52.4953 53.4627 51.3275 54.3928C50.6819 54.9069 50.1238 82.8702 50.7333 84.1607C51.1627 85.0696 56.4016 85.5846 57.3548 84.8116C57.7243 84.5135 58.3839 82.4014 58.8225 80.1199C59.2612 77.8383 59.907 75.7431 60.2577 75.4638C60.6083 75.1846 63.4466 75.1705 66.5649 75.4325C74.9674 76.1387 77.5611 74.8849 78.9797 69.4312ZM115.365 83.4494C115.333 82.6649 113.595 79.8593 111.503 77.2148C103.516 67.1167 103.547 67.5536 110.328 60.7987C115.417 55.7291 115.731 54.5531 112.218 53.7166C107.848 52.6761 106.231 53.617 102.162 59.5673C100.147 62.5136 98.0462 64.9153 97.4926 64.9043C96.4104 64.8831 95.6804 61.0566 96.0965 57.5863C96.2363 56.4204 95.8333 54.9511 95.201 54.3212C93.7918 52.9174 86.7365 52.3632 85.2584 53.5403C84.6669 54.0114 84.3955 57.2849 84.6553 60.8147C84.9151 64.3446 85.1977 70.216 85.2832 73.8624C85.4627 81.517 85.9429 83.7897 87.5346 84.5186C89.1194 85.2443 90.606 83.8592 91.3387 80.9741C92.3072 77.1606 94.208 75.131 97.1847 74.7316C99.6684 74.3983 99.9194 74.552 102.802 78.17C104.461 80.253 106.345 82.7532 106.989 83.7261C107.862 85.0452 108.936 85.5336 111.213 85.647C114.721 85.8217 115.448 85.4368 115.365 83.4494ZM142.384 79.5394C136.713 80.6098 132.416 80.1377 130.505 78.2344C128.748 76.4839 129.783 74.8329 133.493 73.4706C140.241 70.9924 149.127 72.1304 149.266 75.4905C149.356 77.6518 147.925 78.4937 142.384 79.5394ZM155.522 79.8678C155.147 77.8133 154.974 72.5678 155.137 68.2112C155.416 60.7546 155.284 60.1411 152.886 57.752C149.694 54.5718 144.389 53.5192 134.815 54.1664C126.796 54.7085 124.819 55.9397 125.634 59.8853C126.673 64.9136 128.25 65.6483 137.27 65.3084C146.454 64.9623 149.693 65.4911 151.27 67.5942C153.039 69.9537 150.982 70.513 145.314 69.2137C142.393 68.544 138.267 68.0779 136.144 68.1778C126.611 68.6263 121.857 76.3731 127.602 82.0965C129.725 84.2119 134.253 84.7967 142.359 84.0029C145.83 83.6629 150.095 83.6491 151.836 83.9726C153.577 84.2955 155.272 84.3447 155.602 84.0815C155.932 83.8188 155.896 81.9225 155.523 79.868L155.522 79.8678Z" fill="white"/>
</svg>
