<svg width="150" height="216" viewBox="0 0 150 216" fill="none" xmlns="http://www.w3.org/2000/svg">
<path d="M23.5999 25.5109C23.9327 26.2477 24.1029 26.9877 24.1106 27.7308C24.1183 28.4739 23.8957 29.1847 23.4428 29.8631C22.9898 30.5415 22.2994 31.019 21.3716 31.2955C20.2156 31.64 19.0066 31.5997 17.7447 31.1746C16.4827 30.7496 15.4073 30.1261 14.5184 29.3042C13.6295 28.4823 12.9826 27.6231 12.5777 26.7267C12.2449 25.9898 12.0747 25.2499 12.067 24.5067C12.0592 23.7636 12.2819 23.0528 12.7348 22.3744C13.1878 21.696 13.8782 21.2186 14.806 20.9421C15.9772 20.593 17.19 20.6322 18.4443 21.0595C19.6987 21.4868 20.7689 22.1084 21.6551 22.9241C22.5412 23.7399 23.1895 24.6021 23.5999 25.5109ZM19.8151 36.7335C20.2588 37.716 20.3249 38.6647 20.0133 39.5796C19.7017 40.4945 18.9602 41.1265 17.789 41.4756C16.6331 41.8201 15.403 41.8 14.0989 41.4154C12.7948 41.0307 11.6603 40.4388 10.6953 39.6396C9.73036 38.8404 9.04267 37.9864 8.63226 37.0776C8.18856 36.0952 8.12114 35.1434 8.42998 34.2224C8.73882 33.3013 9.47884 32.6662 10.65 32.3172C11.806 31.9727 13.0361 31.9927 14.3402 32.3774C15.6443 32.762 16.7802 33.357 17.7479 34.1624C18.7157 34.9677 19.4047 35.8248 19.8151 36.7335ZM28.5799 33.5571C30.3747 33.0222 32.5844 33.0429 35.209 33.6192C37.8336 34.1955 40.2324 35.1317 42.4054 36.4278C44.5785 37.7239 45.9839 39.0781 46.6217 40.4903C46.8768 41.0552 46.9597 41.5635 46.8703 42.0151C46.7808 42.4667 46.5368 42.853 46.1381 43.1738C45.7394 43.4947 45.3043 43.7637 44.8328 43.9808C44.3614 44.1979 43.7987 44.404 43.1446 44.5989C42.1103 44.9071 40.5595 45.0558 38.4923 45.0449C36.4251 45.034 34.9124 45.1713 33.9541 45.4569C32.9502 45.7561 31.6096 46.4656 29.9323 47.5856C28.255 48.7055 26.8536 49.4332 25.728 49.7686C22.9445 50.5982 21.1479 50.1165 20.3381 48.3235C19.8611 47.2674 19.756 45.9646 20.0227 44.4152C20.2893 42.8657 20.8164 41.3676 21.604 39.9206C22.3915 38.4737 23.4126 37.1523 24.6673 35.9563C25.922 34.7603 27.2261 33.9606 28.5799 33.5571ZM32.2774 28.0452C31.3496 28.3218 30.4429 28.3203 29.5574 28.0408C28.6718 27.7613 27.9362 27.3361 27.3504 26.7653C26.7647 26.1944 26.3055 25.5405 25.9727 24.8037C25.5623 23.8949 25.3703 22.8967 25.3968 21.809C25.4233 20.7212 25.7448 19.6849 26.3613 18.7C26.9779 17.7151 27.8717 17.0481 29.0429 16.6991C29.9708 16.4225 30.8775 16.424 31.763 16.7035C32.6486 16.983 33.3842 17.4082 33.97 17.979C34.5557 18.5499 35.0149 19.2038 35.3477 19.9406C35.7526 20.8371 35.9431 21.8323 35.9194 22.9261C35.8957 24.02 35.5718 25.0605 34.9476 26.0477C34.3235 27.0349 33.4334 27.7007 32.2774 28.0452ZM41.2686 23.192C42.4398 22.843 43.5098 22.9386 44.4786 23.4789C45.4475 24.0192 46.1537 24.7806 46.5974 25.763C47.0078 26.6718 47.1632 27.6844 47.0634 28.8009C46.9636 29.9175 46.5695 30.965 45.8811 31.9435C45.1926 32.922 44.2704 33.5835 43.1144 33.928C41.9432 34.277 40.8745 34.1845 39.9085 33.6503C38.9424 33.1162 38.2375 32.3579 37.7938 31.3754C37.3834 30.4667 37.2267 29.4509 37.3237 28.3283C37.4207 27.2056 37.8134 26.155 38.5019 25.1765C39.1904 24.1981 40.1126 23.5365 41.2686 23.192Z" fill="#3A3C42"/>
<path d="M102.608 61.9124C102.443 62.6857 102.135 63.3957 101.684 64.0424C101.233 64.6891 100.603 65.2142 99.7932 65.6178C98.9834 66.0213 98.0916 66.1544 97.1178 66.017C95.9047 65.8458 94.8825 65.3199 94.0512 64.4392C93.22 63.5585 92.6724 62.5817 92.4084 61.5089C92.1445 60.4361 92.1131 59.4293 92.3142 58.4884C92.4796 57.7152 92.7876 57.0052 93.2383 56.3584C93.689 55.7117 94.3193 55.1866 95.1291 54.7831C95.939 54.3796 96.8307 54.2465 97.8045 54.3839C99.0336 54.5573 100.06 55.0838 100.883 55.9634C101.706 56.8429 102.251 57.8159 102.516 58.8823C102.781 59.9487 102.812 60.9587 102.608 61.9124ZM92.4228 70.0943C92.2023 71.1254 91.6756 71.9738 90.8426 72.6396C90.0096 73.3054 88.9785 73.5516 87.7493 73.3781C86.5362 73.207 85.4833 72.69 84.5907 71.8272C83.698 70.9644 83.0798 69.9909 82.7361 68.9068C82.3923 67.8227 82.3224 66.8039 82.5263 65.8501C82.7467 64.8191 83.2742 63.9675 84.1086 63.2952C84.9429 62.623 85.9747 62.3736 87.2038 62.547C88.417 62.7182 89.4699 63.2352 90.3625 64.098C91.2552 64.9608 91.8727 65.9374 92.2151 67.028C92.5574 68.1185 92.6267 69.1406 92.4228 70.0943ZM101.968 70.9035C103.852 71.1692 105.753 72.0847 107.671 73.6498C109.589 75.2149 111.091 77 112.175 79.0051C113.259 81.0102 113.643 82.7538 113.326 84.2359C113.199 84.8287 112.958 85.3026 112.602 85.6574C112.247 86.0121 111.798 86.2475 111.255 86.3634C110.712 86.4794 110.17 86.5356 109.628 86.5322C109.086 86.5287 108.472 86.4786 107.786 86.3817C106.7 86.2286 105.266 85.7275 103.482 84.8784C101.698 84.0293 100.304 83.5338 99.2982 83.3919C98.2447 83.2432 96.6469 83.3132 94.505 83.6018C92.3631 83.8904 90.7015 83.9514 89.5203 83.7847C86.5991 83.3725 85.3397 82.2256 85.742 80.344C85.979 79.2356 86.6898 78.0647 87.8744 76.8311C89.059 75.5976 90.4376 74.5142 92.0103 73.581C93.5829 72.6478 95.2806 71.9182 97.1033 71.392C98.926 70.8659 100.548 70.703 101.968 70.9035ZM108.563 67.6318C107.589 67.4945 106.805 67.1249 106.21 66.5232C105.615 65.9214 105.24 65.2544 105.084 64.5221C104.928 63.7898 104.933 63.037 105.098 62.2638C105.302 61.3101 105.75 60.3676 106.443 59.4363C107.135 58.5051 108.052 57.7382 109.192 57.1357C110.332 56.5331 111.516 56.3185 112.746 56.492C113.719 56.6294 114.504 56.9989 115.099 57.6006C115.693 58.2024 116.069 58.8694 116.225 59.6017C116.381 60.334 116.376 61.0868 116.21 61.86C116.009 62.8009 115.562 63.7401 114.868 64.6778C114.174 65.6155 113.253 66.3851 112.105 66.9865C110.957 67.5879 109.776 67.803 108.563 67.6318ZM119.337 67.0808C120.566 67.2542 121.434 67.7716 121.94 68.6331C122.447 69.4945 122.59 70.4407 122.369 71.4718C122.165 72.4255 121.677 73.3655 120.903 74.292C120.129 75.2184 119.143 75.9655 117.945 76.5332C116.746 77.101 115.541 77.2993 114.327 77.1281C113.098 76.9547 112.23 76.4405 111.722 75.5855C111.214 74.7305 111.07 73.7875 111.291 72.7565C111.495 71.8028 111.984 70.8595 112.759 69.9266C113.534 68.9937 114.521 68.2434 115.719 67.6757C116.918 67.1079 118.124 66.9096 119.337 67.0808Z" fill="#3A3C42"/>
<path d="M39.8753 128.468C40.208 129.204 40.3783 129.944 40.386 130.688C40.3937 131.431 40.1711 132.141 39.7182 132.82C39.2652 133.498 38.5748 133.976 37.647 134.252C36.491 134.597 35.282 134.556 34.0201 134.131C32.7581 133.706 31.6827 133.083 30.7938 132.261C29.9049 131.439 29.258 130.58 28.8531 129.683C28.5203 128.947 28.3501 128.207 28.3424 127.463C28.3346 126.72 28.5573 126.01 29.0102 125.331C29.4632 124.653 30.1536 124.175 31.0814 123.899C32.2526 123.55 33.4654 123.589 34.7197 124.016C35.9741 124.444 37.0443 125.065 37.9304 125.881C38.8166 126.697 39.4649 127.559 39.8753 128.468ZM36.0905 139.69C36.5342 140.673 36.6003 141.621 36.2887 142.536C35.977 143.451 35.2356 144.083 34.0644 144.432C32.9084 144.777 31.6784 144.757 30.3743 144.372C29.0702 143.987 27.9357 143.396 26.9707 142.596C26.0058 141.797 25.3181 140.943 24.9076 140.034C24.464 139.052 24.3965 138.1 24.7054 137.179C25.0142 136.258 25.7542 135.623 26.9254 135.274C28.0814 134.929 29.3115 134.949 30.6156 135.334C31.9197 135.719 33.0556 136.314 34.0233 137.119C34.991 137.924 35.6801 138.782 36.0905 139.69ZM44.8553 136.514C46.6501 135.979 48.8598 136 51.4844 136.576C54.1089 137.152 56.5078 138.088 58.6808 139.385C60.8539 140.681 62.2593 142.035 62.8971 143.447C63.1522 144.012 63.2351 144.52 63.1457 144.972C63.0562 145.423 62.8122 145.81 62.4135 146.131C62.0148 146.451 61.5797 146.72 61.1082 146.938C60.6368 147.155 60.0741 147.361 59.42 147.556C58.3857 147.864 56.8349 148.013 54.7677 148.002C52.7005 147.991 51.1878 148.128 50.2295 148.414C49.2256 148.713 47.885 149.422 46.2077 150.542C44.5304 151.662 43.1289 152.39 42.0034 152.725C39.2199 153.555 37.4233 153.073 36.6135 151.28C36.1365 150.224 36.0314 148.921 36.2981 147.372C36.5647 145.822 37.0918 144.324 37.8794 142.877C38.6669 141.43 39.688 140.109 40.9427 138.913C42.1973 137.717 43.5015 136.917 44.8553 136.514ZM48.5528 131.002C47.625 131.279 46.7183 131.277 45.8327 130.998C44.9472 130.718 44.2116 130.293 43.6258 129.722C43.0401 129.151 42.5809 128.497 42.2481 127.76C41.8377 126.852 41.6457 125.853 41.6722 124.766C41.6987 123.678 42.0202 122.642 42.6367 121.657C43.2533 120.672 44.1471 120.005 45.3183 119.656C46.2462 119.379 47.1529 119.381 48.0384 119.66C48.924 119.94 49.6596 120.365 50.2453 120.936C50.8311 121.507 51.2903 122.161 51.6231 122.897C52.0279 123.794 52.2185 124.789 52.1948 125.883C52.1711 126.977 51.8472 128.017 51.223 129.004C50.5989 129.992 49.7088 130.657 48.5528 131.002ZM57.544 126.149C58.7152 125.8 59.7852 125.895 60.754 126.436C61.7229 126.976 62.4291 127.737 62.8728 128.72C63.2832 129.629 63.4386 130.641 63.3388 131.758C63.239 132.874 62.8449 133.922 62.1564 134.9C61.468 135.879 60.5457 136.54 59.3898 136.885C58.2186 137.234 57.1499 137.141 56.1839 136.607C55.2178 136.073 54.5129 135.315 54.0692 134.332C53.6588 133.423 53.5021 132.408 53.5991 131.285C53.6961 130.162 54.0888 129.112 54.7773 128.133C55.4658 127.155 56.388 126.493 57.544 126.149Z" fill="#3A3C42"/>
<path d="M114.178 172.595C114.013 173.368 113.705 174.078 113.254 174.725C112.803 175.372 112.173 175.897 111.363 176.3C110.553 176.704 109.661 176.837 108.688 176.7C107.475 176.528 106.452 176.003 105.621 175.122C104.79 174.241 104.242 173.264 103.978 172.192C103.714 171.119 103.683 170.112 103.884 169.171C104.049 168.398 104.357 167.688 104.808 167.041C105.259 166.394 105.889 165.869 106.699 165.466C107.509 165.062 108.401 164.929 109.374 165.067C110.603 165.24 111.63 165.767 112.453 166.646C113.276 167.526 113.82 168.499 114.086 169.565C114.351 170.631 114.382 171.641 114.178 172.595ZM103.993 180.777C103.772 181.808 103.245 182.656 102.412 183.322C101.579 183.988 100.548 184.234 99.3192 184.061C98.106 183.89 97.0531 183.373 96.1605 182.51C95.2678 181.647 94.6497 180.674 94.3059 179.589C93.9621 178.505 93.8922 177.486 94.0961 176.533C94.3166 175.502 94.844 174.65 95.6784 173.978C96.5128 173.306 97.5445 173.056 98.7737 173.23C99.9868 173.401 101.04 173.918 101.932 174.781C102.825 175.643 103.443 176.62 103.785 177.711C104.127 178.801 104.197 179.823 103.993 180.777ZM113.538 181.586C115.422 181.852 117.323 182.767 119.241 184.332C121.159 185.898 122.66 187.683 123.745 189.688C124.829 191.693 125.212 193.436 124.896 194.918C124.769 195.511 124.528 195.985 124.172 196.34C123.817 196.695 123.368 196.93 122.825 197.046C122.282 197.162 121.74 197.218 121.198 197.215C120.656 197.211 120.042 197.161 119.355 197.064C118.27 196.911 116.835 196.41 115.052 195.561C113.268 194.712 111.874 194.216 110.868 194.074C109.815 193.926 108.217 193.996 106.075 194.284C103.933 194.573 102.271 194.634 101.09 194.467C98.1689 194.055 96.9095 192.908 97.3118 191.027C97.5488 189.918 98.2596 188.747 99.4442 187.514C100.629 186.28 102.007 185.197 103.58 184.264C105.153 183.33 106.85 182.601 108.673 182.075C110.496 181.548 112.118 181.386 113.538 181.586ZM120.133 178.314C119.159 178.177 118.375 177.808 117.78 177.206C117.185 176.604 116.81 175.937 116.654 175.205C116.498 174.473 116.503 173.72 116.668 172.946C116.872 171.993 117.32 171.05 118.013 170.119C118.705 169.188 119.621 168.421 120.762 167.818C121.902 167.216 123.086 167.001 124.316 167.175C125.289 167.312 126.074 167.682 126.668 168.283C127.263 168.885 127.639 169.552 127.795 170.284C127.95 171.017 127.946 171.769 127.78 172.543C127.579 173.484 127.132 174.423 126.438 175.36C125.744 176.298 124.823 177.068 123.675 177.669C122.527 178.271 121.346 178.486 120.133 178.314ZM130.907 177.763C132.136 177.937 133.004 178.454 133.51 179.316C134.017 180.177 134.16 181.123 133.939 182.154C133.735 183.108 133.247 184.048 132.473 184.975C131.699 185.901 130.713 186.648 129.515 187.216C128.316 187.784 127.11 187.982 125.897 187.811C124.668 187.637 123.8 187.123 123.292 186.268C122.784 185.413 122.64 184.47 122.861 183.439C123.065 182.485 123.554 181.542 124.329 180.609C125.104 179.676 126.091 178.926 127.289 178.358C128.488 177.791 129.694 177.592 130.907 177.763Z" fill="#3A3C42"/>
</svg>
