<svg width="32" height="30" viewBox="0 0 32 30" fill="none" xmlns="http://www.w3.org/2000/svg">
<path d="M20.7792 8.64453C20.3202 9.16035 19.796 9.58158 19.2064 9.90822C18.6169 10.2349 17.9642 10.4115 17.2484 10.4381C16.5325 10.4646 15.8852 10.264 15.3063 9.83599C14.5852 9.30279 14.1503 8.57154 14.0019 7.64223C13.8534 6.71293 13.9351 5.80775 14.2471 4.92671C14.5591 4.04567 14.9943 3.29136 15.5527 2.66378C16.0116 2.14796 16.5359 1.72674 17.1254 1.4001C17.715 1.07346 18.3676 0.896844 19.0835 0.870257C19.7993 0.843669 20.4467 1.04436 21.0255 1.47232C21.7562 2.01254 22.1934 2.74554 22.3371 3.67134C22.4808 4.59714 22.3986 5.49841 22.0905 6.37515C21.7823 7.25189 21.3452 8.00835 20.7792 8.64453ZM10.3693 11.2739C9.75736 11.9617 9.02645 12.4119 8.1766 12.6244C7.32675 12.837 6.53649 12.6732 5.80583 12.1329C5.08466 11.5997 4.62558 10.8648 4.42858 9.92814C4.23159 8.99147 4.26536 8.06508 4.52989 7.14896C4.79442 6.23284 5.20972 5.45669 5.77577 4.82051C6.38772 4.13275 7.12053 3.68045 7.97421 3.46359C8.82789 3.24673 9.62006 3.40841 10.3507 3.94863C11.0719 4.48183 11.531 5.21676 11.728 6.15343C11.925 7.0901 11.8893 8.01864 11.6209 8.93906C11.3526 9.85947 10.9354 10.6378 10.3693 11.2739ZM16.2871 15.0721C17.4069 15.9 18.2438 17.2136 18.798 19.013C19.3522 20.8123 19.5322 22.6344 19.3381 24.4791C19.1441 26.3238 18.6072 27.7405 17.7275 28.7292C17.3756 29.1247 17.0024 29.3939 16.6078 29.5368C16.2131 29.6797 15.8109 29.703 15.4011 29.6067C14.9913 29.5104 14.6088 29.3701 14.2535 29.1858C13.8983 29.0016 13.5167 28.7586 13.1087 28.4569C12.4634 27.9799 11.7459 27.1287 10.9562 25.9035C10.1665 24.6782 9.47272 23.8446 8.87491 23.4026C8.24863 22.9395 7.16511 22.4556 5.62434 21.9506C4.08358 21.4457 2.9621 20.9336 2.25991 20.4145C0.523407 19.1306 0.21356 17.8611 1.33037 16.6059C1.98821 15.8666 2.98633 15.2398 4.32473 14.7257C5.66313 14.2116 7.06124 13.8735 8.51908 13.7114C9.97691 13.5493 11.4249 13.5794 12.8631 13.8019C14.3013 14.0243 15.4426 14.4477 16.2871 15.0721ZM22.11 14.8663C21.5312 14.4384 21.1822 13.9024 21.063 13.2584C20.9438 12.6144 20.9986 11.9958 21.2276 11.4026C21.4565 10.8093 21.8005 10.2548 22.2595 9.73899C22.8255 9.10282 23.5473 8.55683 24.4248 8.10104C25.3023 7.64524 26.2527 7.38592 27.2762 7.32306C28.2996 7.26021 29.1766 7.49889 29.9073 8.0391C30.4861 8.46707 30.8351 9.00304 30.9543 9.64702C31.0735 10.291 31.0186 10.9096 30.7897 11.5028C30.5607 12.0961 30.2168 12.6506 29.7578 13.1664C29.1994 13.794 28.4796 14.3378 27.5982 14.7979C26.7169 15.258 25.7622 15.5177 24.734 15.5771C23.7058 15.6364 22.8312 15.3995 22.11 14.8663ZM29.4522 18.0714C30.1829 18.6116 30.5199 19.2848 30.4633 20.091C30.4067 20.8972 30.0725 21.6442 29.4605 22.3319C28.8945 22.9681 28.147 23.4987 27.2183 23.9237C26.2895 24.3487 25.3021 24.57 24.256 24.5876C23.2099 24.6052 22.3263 24.3474 21.6051 23.8142C20.8745 23.274 20.5355 22.603 20.5883 21.8011C20.6411 20.9992 20.9734 20.2544 21.5854 19.5666C22.1514 18.9304 22.9008 18.3977 23.8334 17.9684C24.766 17.5391 25.7553 17.3156 26.8014 17.298C27.8474 17.2804 28.7311 17.5382 29.4522 18.0714Z" fill="#F7F8E2"/>
</svg>
