<?xml version="1.0" encoding="UTF-8" standalone="no"?>
<!-- Created with Inkscape (http://www.inkscape.org/) -->

<svg
   xmlns:dc="http://purl.org/dc/elements/1.1/"
   xmlns:cc="http://creativecommons.org/ns#"
   xmlns:rdf="http://www.w3.org/1999/02/22-rdf-syntax-ns#"
   xmlns:svg="http://www.w3.org/2000/svg"
   xmlns="http://www.w3.org/2000/svg"
   xmlns:sodipodi="http://sodipodi.sourceforge.net/DTD/sodipodi-0.dtd"
   xmlns:inkscape="http://www.inkscape.org/namespaces/inkscape"
   width="33.442711mm"
   height="15.530925mm"
   viewBox="0 0 33.442711 15.530925"
   version="1.1"
   id="svg306"
   inkscape:version="0.92.5 (2060ec1f9f, 2020-04-08)"
   sodipodi:docname="Dim.svg">
  <defs
     id="defs300" />
  <sodipodi:namedview
     id="base"
     pagecolor="#ffffff"
     bordercolor="#666666"
     borderopacity="1.0"
     inkscape:pageopacity="0.0"
     inkscape:pageshadow="2"
     inkscape:zoom="3.959798"
     inkscape:cx="36.86448"
     inkscape:cy="48.135666"
     inkscape:document-units="mm"
     inkscape:current-layer="layer1"
     showgrid="false"
     inkscape:window-width="1848"
     inkscape:window-height="1016"
     inkscape:window-x="1992"
     inkscape:window-y="27"
     inkscape:window-maximized="1" />
  <metadata
     id="metadata303">
    <rdf:RDF>
      <cc:Work
         rdf:about="">
        <dc:format>image/svg+xml</dc:format>
        <dc:type
           rdf:resource="http://purl.org/dc/dcmitype/StillImage" />
        <dc:title></dc:title>
      </cc:Work>
    </rdf:RDF>
  </metadata>
  <g
     inkscape:label="Layer 1"
     inkscape:groupmode="layer"
     id="layer1"
     transform="translate(-50.190444,-34.798407)">
    <path
       inkscape:connector-curvature="0"
       id="path254"
       style="fill:#000000;stroke-width:0.26458332"
       d="m 68.880999,45.668377 c 0.672974,-0.245809 0.74298,-0.401419 1.285791,-2.857905 0.58361,-2.641216 1.078371,-3.483682 1.506326,-2.564967 0.12319,0.264457 0.46255,1.718564 0.75414,3.231352 0.583339,3.026435 0.636737,3.086399 2.859375,3.210888 0.736221,0.04123 1.316447,-0.10009 1.517331,-0.36959 0.178895,-0.239997 0.415447,-1.343317 0.525675,-2.45182 0.249194,-2.50598 0.518427,-3.498183 0.93925,-3.461491 0.386928,0.03374 0.73331,0.960977 1.197967,3.206849 0.515246,2.490367 0.696751,2.798539 1.750496,2.972163 0.483669,0.0797 1.249516,-0.03525 1.701877,-0.255444 0.819101,-0.398695 0.821409,-0.406141 0.559781,-1.806039 -0.174415,-0.933288 -0.650521,-2.197667 -1.254069,-3.47967 -1.162718,-2.469737 -2.798453,-5.0049 -3.661559,-5.364384 -0.855006,-0.356114 -1.672161,0.256154 -2.366627,1.773233 -0.31796,0.694579 -0.681653,1.67742 -0.808209,2.184093 -0.289379,1.158512 -0.324915,1.20175 -0.735907,0.895394 -0.185632,-0.138371 -0.47418,-0.856232 -0.641219,-1.595245 -0.167046,-0.73902 -0.555401,-1.874838 -0.863009,-2.524042 -0.467187,-0.985972 -0.64787,-1.175759 -1.097027,-1.152304 -1.400626,0.07315 -2.650711,2.42598 -3.691283,6.947551 -0.825626,3.587569 -0.773467,3.934149 0.520892,3.461371 z m -3.244945,0.349376 c 0.498003,-0.679808 1.106222,-6.653103 0.891122,-8.752787 -0.178283,-1.740305 -0.604977,-2.25719 -1.822978,-2.20832 -0.689814,0.02768 -0.810789,0.123928 -0.946949,0.753402 -0.157802,0.729505 0.08338,6.333666 0.38124,8.85879 0.188307,1.596414 0.867765,2.208429 1.497565,1.348915 z M 53.962875,45.651336 c -0.04724,-2.962463 0.564021,-7.311876 1.072764,-7.633552 0.212585,-0.134417 1.052885,-0.128957 1.867335,0.01213 l 1.480817,0.25653 0.303966,1.142945 c 0.458359,1.723493 0.598154,7.021197 0.194983,7.389317 -0.385153,0.351671 -4.233823,0.581518 -4.642042,0.277228 -0.141824,-0.105718 -0.266846,-0.755787 -0.277824,-1.444598 z m -2.716145,4.677227 c 0.480117,0.01419 0.765043,-0.166733 1.026941,-0.652084 0.298499,-0.553185 0.639011,-0.700631 1.929579,-0.835544 2.396551,-0.250524 7.222892,0.334028 8.021991,0.971602 0.365941,0.291984 0.900842,0.518568 1.188659,0.50354 0.847671,-0.04427 0.85947,-1.580802 0.02424,-3.157367 -0.500857,-0.945418 -0.861427,-2.603052 -1.268779,-5.832875 -0.454608,-3.604545 -0.708675,-4.699948 -1.263131,-5.445973 -0.67371,-0.906479 -0.744481,-0.936608 -2.413606,-1.027544 -3.000978,-0.163494 -4.185331,0.03076 -4.738876,0.777281 -0.647187,0.872753 -1.771412,6.122131 -1.910307,8.919619 -0.09445,1.902224 -0.218066,2.343746 -0.919801,3.285158 -0.52616,0.70587 -0.780908,1.291797 -0.725824,1.669421 0.104424,0.715886 0.211416,0.800018 1.048906,0.824766 z" />
  </g>
</svg>
