<?xml version="1.0" encoding="UTF-8" standalone="no"?>
<!-- Created with Inkscape (http://www.inkscape.org/) -->

<svg
   xmlns:dc="http://purl.org/dc/elements/1.1/"
   xmlns:cc="http://creativecommons.org/ns#"
   xmlns:rdf="http://www.w3.org/1999/02/22-rdf-syntax-ns#"
   xmlns:svg="http://www.w3.org/2000/svg"
   xmlns="http://www.w3.org/2000/svg"
   xmlns:sodipodi="http://sodipodi.sourceforge.net/DTD/sodipodi-0.dtd"
   xmlns:inkscape="http://www.inkscape.org/namespaces/inkscape"
   version="1.1"
   id="svg3834"
   width="577.74249"
   height="520.98077"
   viewBox="0 0 577.74249 520.98077"
   sodipodi:docname="logo.svg"
   inkscape:export-filename="/home/maksym/Maks/Projects/DSWP/Others/logo500dpi3.png"
   inkscape:export-xdpi="500"
   inkscape:export-ydpi="500"
   inkscape:version="0.92.5 (2060ec1f9f, 2020-04-08)">
  <metadata
     id="metadata3840">
    <rdf:RDF>
      <cc:Work
         rdf:about="">
        <dc:format>image/svg+xml</dc:format>
        <dc:type
           rdf:resource="http://purl.org/dc/dcmitype/StillImage" />
        <dc:title />
      </cc:Work>
    </rdf:RDF>
  </metadata>
  <defs
     id="defs3838" />
  <sodipodi:namedview
     pagecolor="#ffffff"
     bordercolor="#666666"
     borderopacity="1"
     objecttolerance="10"
     gridtolerance="10"
     guidetolerance="10"
     inkscape:pageopacity="0"
     inkscape:pageshadow="2"
     inkscape:window-width="1848"
     inkscape:window-height="1016"
     id="namedview3836"
     showgrid="false"
     fit-margin-top="0"
     fit-margin-left="0"
     fit-margin-right="0"
     fit-margin-bottom="0"
     inkscape:zoom="1.2344906"
     inkscape:cx="228.58256"
     inkscape:cy="150.9029"
     inkscape:window-x="1992"
     inkscape:window-y="27"
     inkscape:window-maximized="1"
     inkscape:current-layer="svg3834" />
  <path
     style="fill:#000000"
     d="m 402.80696,520.42039 c -35.62459,-2.54644 -45.38203,-2.98324 -64,-2.86496 -23.03094,0.14631 -23.05289,0.14182 -41,-8.38963 -5.225,-2.48379 -14,-6.18471 -19.5,-8.22427 -5.5,-2.03956 -12.925,-5.17087 -16.5,-6.95847 -9.99521,-4.99788 -24.93897,-10.29212 -32.42794,-11.48849 -3.7174,-0.59386 -24.37937,-1.28288 -45.91548,-1.53116 -21.53612,-0.24828 -42.30658,-0.89321 -46.15658,-1.43317 -3.85,-0.53996 -12.70958,-0.99647 -19.68795,-1.01446 -18.383725,-0.0474 -31.423235,-3.66172 -39.062045,-10.82727 -3.74564,-3.51359 -3.53765,-5.20545 0.63992,-5.20545 3.78571,0 18.24999,-2.84272 30.832655,-6.05966 13.13111,-3.35715 23.4051,-4.95704 35.77742,-5.57132 10.39188,-0.51596 13.42716,-0.2168 31.5,3.10465 33.7047,6.19428 62.59104,15.48599 93.88181,30.19844 9.96501,4.68539 18.56819,8.87532 19.11819,9.31095 0.55,0.43563 5.96754,3.29253 12.03898,6.34867 13.53637,6.81372 19.21726,7.89542 36.96102,7.03775 14.51993,-0.70184 46.59558,0.94425 62.2588,3.19507 12.27995,1.76463 24.46688,0.69112 36.11293,-3.1811 11.04648,-3.67287 45.48713,-19.74247 51.0251,-23.80771 8.51376,-6.24968 18.10317,-19.62262 18.10317,-25.24584 0,-2.6689 -0.58811,-3.58266 -3.16275,-4.91406 -5.21772,-2.69819 -9.39221,-1.36525 -24.66638,7.8761 -7.74057,4.68329 -16.23311,9.21442 -18.87231,10.06918 -2.63921,0.85475 -12.22356,2.72269 -21.29856,4.15096 -20.68051,3.2548 -20.99378,3.37725 -21.02196,8.21648 -0.0466,8.00233 -6.49326,16.42448 -13.67076,17.85998 -3.31311,0.66263 -16.86338,-4.3355 -31.08593,-11.4663 -4.24674,-2.1292 -12.22135,-5.52229 -17.72135,-7.54019 -5.5,-2.01791 -13.15,-4.98846 -17,-6.60123 -3.85,-1.61276 -12.625,-5.14404 -19.5,-7.84727 -13.71828,-5.39399 -30.8492,-12.90075 -32.63926,-14.3025 -1.59885,-1.25202 -2.22389,-5.3242 -1.11999,-7.29675 0.69882,-1.24874 1.68722,-1.48939 4.01616,-0.97787 4.14656,0.91073 22.44147,8.35415 37.21987,15.14317 16.42787,7.54677 38.17834,16.3004 40.5022,16.3004 1.35092,0 2.99559,-2.06215 5.60481,-7.02749 7.45352,-14.18408 13.59352,-15.4991 24.54361,-5.25657 5.04337,4.71748 9.89259,12.59428 9.85064,16.00082 -0.0121,0.98078 -0.92472,3.7731 -2.02808,6.20516 -2.33326,5.14301 -1.16305,7.85913 1.58141,3.67055 2.03018,-3.09845 2.98112,-10.04713 2.05243,-14.99748 -1.74892,-9.32251 -21.84527,-28.09625 -41.29491,-38.57714 -6.48389,-3.49399 -14.71389,-8.15095 -18.28889,-10.3488 -3.575,-2.19785 -12.35,-6.90831 -19.5,-10.4677 -18.6856,-9.30199 -22.71174,-12.1377 -35,-24.65133 -18.54553,-18.88565 -36.10155,-30.22329 -56,-36.16465 -8.07811,-2.412 -10.45969,-2.67376 -23.25036,-2.55554 -15.2154,0.14064 -34.28944,2.84695 -54.17265,7.68627 -14.41729,3.50899 -30.9281,4.62974 -63.076985,4.28165 l -27.5,-0.29775 0.14789,-4 c 1.31903,-35.67453 2.54719,-76.29764 2.68177,-88.70232 0.14051,-12.95238 -0.099,-15.97376 -1.3676,-17.25222 -1.2533,-1.26305 -6.25038,-1.73007 -27,-2.52338 -14.00413,-0.53541 -27.209,-1.47197 -29.34414,-2.08125 -5.6785002,-1.6204 -13.0801802,-8.94855 -14.63027023,-14.48495 -1.55701,-5.56107 -0.80071,-12.69511 2.04780003,-19.31665 3.56312,-8.2827 17.5490402,-20.41495 47.0945802,-40.85276 6.39652,-4.42472 17.42152,-12.50157 24.5,-17.94854 7.07849,-5.44698 17.73366,-13.23822 23.67817,-17.31387 5.944505,-4.07564 14.494505,-10.3661 18.999995,-13.97879 4.50549,-3.61269 14.66405,-11.45416 22.57457,-17.42549 7.91052,-5.97133 20.06096,-15.416099 27.00098,-20.988369 6.94001,-5.57228 19.30458,-15.08141 27.47682,-21.13141 8.17224,-6.05 23.31292,-17.60347 33.64594,-25.67437 23.98739,-18.73605 41.37225,-30.9455905 51.49349,-36.1643505 7.93771,-4.09287997 8.08564,-4.12513997 19,-4.14313997 10.61147,-0.0175 11.26491,0.10977 18.5,3.60321997 9.4235,4.55011 32.55635,23.6344205 61,50.3242205 11.275,10.57978 25.225,23.51861 31,28.75295 5.775,5.23434 18.08001,16.44349 27.34447,24.909229 9.26446,8.46573 24.33946,22.06863 33.5,30.22867 9.16054,8.16003 21.38053,19.43316 27.15553,25.05138 12.76481,12.4183 35.41537,32.74031 51.10942,45.85522 15.15301,12.66279 22.95923,21.1197 26.91871,29.16254 2.81185,5.71168 3.16162,7.29444 2.77947,12.57761 -0.49496,6.84266 -2.22459,9.77553 -8.69256,14.7396 -6.61321,5.07554 -10.59247,5.83283 -28.11504,5.35058 -8.525,-0.23462 -20.225,-0.45961 -26,-0.49997 l -10.5,-0.0734 -0.70785,9.20181 c -0.68505,8.90546 -1.13107,21.16676 -4.23055,116.29819 -1.33782,41.06133 -1.3235,44.59659 0.1854,45.75 0.89939,0.6875 2.24218,1.25 2.98397,1.25 2.10693,0 8.56771,3.56457 10.66594,5.88466 1.0433,1.15362 3.7433,3.18252 6,4.50868 6.55386,3.8514 11.60309,11.86142 11.60309,18.40696 0,2.69441 -0.87414,5.10496 -2.8284,7.79966 -5.12358,7.06484 -9.50386,10.06912 -18.86462,12.93858 -4.84384,1.48484 -11.73198,3.60261 -15.30698,4.70616 -3.575,1.10355 -11.225,4.17066 -17,6.81579 -35.50894,16.26422 -46.73917,18.82545 -74,16.87684 z"
     id="path288" />
  <path
     style="fill:#ffffff"
     d="m 399.51978,489.11188 c 2.68473,-5.12556 2.1705,-11.91615 -1.27051,-16.77754 -3.7344,-5.27588 -10.93233,-9.44708 -14.67931,-8.50665 -6.26906,1.57344 -10.67402,16.18879 -6.22122,20.64159 2.64943,2.64944 17.29231,9.01468 19.1223,8.31244 0.77544,-0.29756 2.14737,-1.94899 3.04874,-3.66984 z"
     id="path286" />
  <path
     style="fill:#ffffff"
     d="m 513.27018,480.96304 c 7.03847,-4.23834 8.46333,-5.95981 8.50498,-10.27543 0.0431,-4.47168 -4.06531,-8.75813 -6.92668,-7.22677 -2.49878,1.33731 -9.79321,13.53067 -10.64637,17.79647 -0.54894,2.7447 -0.35676,3.22575 1.28868,3.22575 1.0636,0 4.56433,-1.58401 7.77939,-3.52002 z"
     id="path284" />
  <path
     style="fill:#ffffff"
     d="m 424.92461,464.60071 c 4.84904,-4.84904 4.89587,-7.13935 0.28599,-13.98464 -2.61654,-3.88533 -3.29653,-5.64012 -2.49586,-6.44079 0.80067,-0.80067 2.34725,0.11303 5.67657,3.35364 5.18039,5.04237 7.41565,8.74448 7.41565,12.28204 0,3.96139 2.18193,4.95616 9.22436,4.20549 12.10756,-1.29058 19.55031,-4.70457 33.64175,-15.43147 7.08841,-5.39594 11.25837,-10.31078 9.90033,-11.66882 -0.31345,-0.31345 -2.75163,1.10141 -5.41818,3.14413 -6.90213,5.28741 -10.0029,6.3331 -22.11106,7.45659 -5.90546,0.54795 -12.43821,1.51599 -14.51723,2.1512 -5.71225,1.74528 -6.22881,0.56519 -4.08125,-9.32359 1.33284,-6.13729 1.81405,-12.61743 1.80906,-24.36143 -0.006,-14.12369 -0.27608,-16.76225 -2.30306,-22.5 -8.18557,-23.17072 -29.94654,-58.97704 -60.16635,-99 -4.77577,-6.325 -11.39633,-15.55 -14.71236,-20.5 -3.31603,-4.95 -9.25172,-12.825 -13.19041,-17.5 -19.23445,-22.83015 -29.57248,-44.53241 -27.57105,-57.8789 0.91841,-6.12442 2.94014,-10.995 13.49692,-32.51557 5.72338,-11.66744 9.76717,-21.3503 10.97856,-26.28822 3.3191,-13.52941 5.76492,-46.220479 3.51494,-46.980959 -0.55276,-0.18684 -2.80276,3.36688 -5,7.897139 -5.3748,11.08177 -8.32612,13.13265 -17.99497,12.50473 -3.95717,-0.25698 -10.45187,-1.65785 -14.94101,-3.22267 -10.98761,-3.83007 -21.65419,-3.2773 -36.05899,1.86865 -11.29756,4.03593 -17.39075,4.51466 -22.53856,1.77079 -1.90379,-1.01475 -8.41144,-4.44905 -14.46144,-7.63177 -6.05,-3.18272 -11.88763,-6.402459 -12.97251,-7.154989 -3.9555,-2.74374 -7.24006,-1.73341 -10.99404,3.381769 -5.44723,7.42238 -7.62776,12.91433 -9.21741,23.21517 -2.37398,15.38327 -0.50271,27.34155 5.80586,37.10215 3.51686,5.44125 4.27662,6.08965 6.61237,5.64315 3.65302,-0.69832 4.90166,-0.0356 7.32705,3.88875 1.23841,2.00379 2.91027,3.40078 4.0699,3.40078 4.93084,0 12.80952,7.04319 16.94376,15.14698 1.99522,3.91095 2.12771,5.3577 1.7212,18.79506 -0.41422,13.69183 -0.62878,14.98278 -3.6063,21.69824 -3.76362,8.48841 -9.37886,27.86878 -11.11427,38.35972 -1.10727,6.69365 -1.00974,8.84392 0.90714,20 3.27879,19.08229 4.02149,22 5.60011,22 1.85338,0 1.83476,-4.31577 -0.0614,-14.22469 -2.34297,-12.24412 0.1286,-14.58367 4.43816,-4.2011 3.47727,8.37743 3.37361,20.992 -0.29112,35.42579 -1.46627,5.775 -2.66653,12.6146 -2.66725,15.19911 -0.002,5.52753 1.19765,6.64784 15.13448,14.13919 9.56139,5.13945 10.14521,5.05119 11.41171,-1.72515 0.39955,-2.13776 2.58987,-6.63776 4.86739,-10 10.79033,-15.92947 10.73569,-15.80348 11.59467,-26.73454 0.97482,-12.40516 2.62794,-15.11106 5.96942,-9.771 1.78447,2.85179 2.06598,4.58757 1.76654,10.89239 -0.33247,7.00024 -0.70223,8.0664 -5.54894,16 -5.24785,8.59022 -6.22568,12.34675 -3.94656,15.16152 0.6875,0.84907 4.68707,3.88142 8.88793,6.73855 4.20086,2.85713 8.43311,6.07344 9.40499,7.14736 2.3975,2.6492 4.64259,2.45378 7.53277,-0.6557 4.59249,-4.94097 14.46408,-11.18569 29.77448,-18.8352 15.1869,-7.58781 19.31816,-8.68971 19.95964,-5.32368 0.56156,2.9467 -4.12707,6.07115 -16.7159,11.13929 -15.11326,6.08445 -21.57349,10.48772 -25.84391,17.6151 -2.57018,4.28966 -3.25,6.52747 -3.25,10.69829 0,5.85134 2.09815,12.18298 5.61869,16.95563 3.23173,4.38114 23.39962,17.81924 38.89338,25.91513 22.91442,11.97336 39.13839,24.44799 48.59518,37.36488 6.72735,9.18879 9.2991,9.90778 15.0104,4.19648 z"
     id="path282" />
  <path
     style="fill:#000000"
     d="m 398.22965,410.14219 c -0.60022,-1.56414 1.06584,-19.48099 1.88795,-20.30311 0.30596,-0.30596 1.09601,-0.22273 1.75566,0.18495 0.87098,0.5383 1.01595,3.17079 0.52948,9.61489 -0.36843,4.8805 -0.92634,9.542 -1.23981,10.35889 -0.70962,1.84922 -2.24998,1.92504 -2.93328,0.14438 z"
     id="path280" />
  <path
     style="fill:#000000"
     d="m 406.27848,408.43697 c -1.06115,-1.71698 0.59041,-11.09933 1.87916,-10.67535 1.48059,0.48708 1.99256,4.0783 1.19072,8.35243 -0.63198,3.36876 -1.85266,4.29243 -3.06988,2.32292 z"
     id="path278" />
  <path
     style="fill:#000000"
     d="m 254.13663,238.89978 c -0.64382,-1.67776 5.27628,-24.25192 6.78358,-25.86672 2.29431,-2.45795 -1.27598,20.19403 -3.9719,25.2 -1.4346,2.66387 -1.99437,2.7966 -2.81168,0.66672 z"
     id="path276" />
  <path
     style="fill:#000000"
     d="m 262.82227,228.81639 c 0.008,-1.55833 0.45842,-3.50833 1,-4.33333 1.45973,-2.22364 2.94254,0.51087 2.06212,3.80286 -0.97698,3.65306 -3.08096,4.01755 -3.06212,0.53047 z"
     id="path274" />
  <path
     style="fill:#000000"
     d="m 284.97644,135.74584 c -2.79075,-2.2149 -3.63942,-2.45039 -5.23644,-1.45304 -2.92343,1.82572 -5.35785,1.43142 -7.9055,-1.28042 -1.95065,-2.07638 -2.11383,-2.72043 -1.02243,-4.03548 1.38357,-1.6671 14.92625,-8.49384 16.84982,-8.49384 0.62979,0 1.14382,1.4625 1.14229,3.25 -0.002,1.7875 0.97331,5.09295 2.1663,7.34545 3.75357,7.08716 0.37229,9.72004 -5.99404,4.66733 z"
     id="path272" />
  <path
     style="fill:#000000"
     d="m 333.36366,136.26055 c -3.26063,-4.6552 -0.36286,-11.96805 2.94815,-7.43997 1.88492,2.57778 3.08167,2.02627 6.15333,-2.83573 3.03809,-4.80888 4.93366,-5.94316 3.76312,-2.25179 -1.48182,4.67302 -8.68185,14.75 -10.53891,14.75 -0.42294,0 -1.4695,-1.00013 -2.32569,-2.22251 z"
     id="path270" />
  <path
     style="fill:#ffffff"
     d="m 182.07757,308.73306 c 1.77616,-2.6125 5.08268,-6.6625 7.34781,-9 3.47656,-3.58764 4.73404,-4.25 8.0685,-4.25 5.52823,0 13.29646,2.4766 23.8592,7.60659 9.10922,4.42406 11.85925,5.16456 12.90372,3.47457 1.02909,-1.6651 -3.3201,-21.28025 -5.17257,-23.3287 -3.81516,-4.21875 -17.59682,-9.19455 -29.77727,-10.75092 -9.10357,-1.16322 -20.35355,0.38382 -26.89456,3.6984 -5.80903,2.94366 -14.65642,11.59471 -16.56149,16.19396 -1.40986,3.4037 -0.76115,5.2233 1.17272,3.28943 2.23217,-2.23217 2.78333,-1.17314 2.78333,5.34805 0,7.88213 1.38187,8.93936 6.71996,5.14125 3.88573,-2.76474 5.28004,-2.67513 5.28004,0.33933 0,3.66969 2.22288,6.98804 4.68112,6.98804 1.69564,0 3.2693,-1.33731 5.58949,-4.75 z"
     id="path268" />
  <path
     id="path254"
     style="fill:#ffffff"
     d="m 140.33039,189.08765 c 1.48407,-2.26498 1.34472,-2.89466 -2.55914,-11.56462 -4.19744,-9.32191 -4.60114,-12.99239 -1.22913,-11.17508 0.97066,0.52312 5.28357,4.16294 9.58423,8.08848 8.60379,7.85333 8.90107,7.91442 15.91749,3.27117 2.32411,-1.53802 3.76312,-3.27691 3.76312,-4.54731 0,-1.13135 -1.77534,-5.00905 -3.9452,-8.61712 -4.90539,-8.15672 -6.33074,-11.77153 -4.97261,-12.6109 1.2487,-0.77175 4.39278,1.25564 10.87381,7.01172 7.18657,6.38269 8.43267,6.90656 12.01804,5.05249 1.64566,-0.851 3.70674,-2.92922 4.58018,-4.61827 1.58153,-3.05834 1.57171,-3.08612 -2.38319,-6.73725 -2.63666,-2.43416 -6.93536,-5.19017 -11.66009,-7.71172 -9.10201,-4.85767 -19.78516,-8.84515 -23.21264,-7.98491 -3.3953,0.85216 -4.48852,4.5533 -3.16619,10.71915 0.60542,2.82298 1.72337,6.62278 2.48433,8.44401 1.73994,4.16428 1.72993,4.37557 -0.20748,4.37557 -0.87507,0 -3.37096,-1.52355 -5.54642,-3.38567 -2.17547,-1.86212 -5.91788,-4.42676 -8.31647,-5.69921 -3.6428,-1.9325 -4.619,-2.09948 -5.92711,-1.01385 -4.0791,3.38536 -2.55261,13.33884 4.50746,29.39095 5.60171,12.7363 6.54261,13.66872 9.39701,9.31237 z m -9.04398,8.38839 c -0.0261,-3.1849 -11.67583,-22.65956 -17.07041,-28.53634 -4.47125,-4.87092 -6.9318,-5.47342 -10.5123,-2.57411 -2.02782,1.64203 -2.177,2.20695 -1.16775,4.422 1.16962,2.56705 14.55913,19.00451 21.16548,25.98355 4.17663,4.41225 7.61799,4.73207 7.58498,0.7049 z m -36.200755,25.25702 c -6.83468,-8.87048 -14.80691,-23.43111 -13.99188,-25.55503 0.34057,-0.88751 2.89926,-2.76904 5.68597,-4.18118 l 5.06675,-2.56751 3.50279,2.77686 c 5.281985,4.18734 17.672055,19.92515 17.281845,21.95134 -0.37277,1.93565 -11.51618,11.32552 -13.440535,11.32552 -0.66856,0 -2.51579,-1.6875 -4.10494,-3.75 z m 2.33421,20.30858 c 1.48694,-1.04149 1.94168,-2.23333 1.639,-4.29566 -0.34499,-2.35056 0.3538,-3.56651 3.959855,-6.89047 6.69636,-6.17249 22.64196,-15.30286 26.5036,-15.17583 1.76844,0.0582 3.90118,-0.46341 4.7394,-1.15907 2.4687,-2.04884 -0.96629,-6.73166 -7.0584,-9.62251 -3.65324,-1.73355 -8.49014,-5.94221 -17.02005,-14.80938 -9.51954,-9.89595 -12.763735,-12.64145 -16.129015,-13.64972 -4.08909,-1.22512 -4.3716,-1.15656 -9.63494,2.3381 -9.46313,6.28317 -12.61327,9.54705 -12.60444,13.05955 0.0103,4.10656 8.46077,22.5531 14.35884,31.34403 4.01055,5.97762 4.63325,7.5948 4.63325,12.03263 0,3.32748 0.55153,5.67843 1.57143,6.69832 1.93347,1.93347 2.44773,1.94674 5.04147,0.13001 z" />
  <path
     id="path246"
     style="fill:#ffffff"
     d="m 394.35498,154.05012 c 2.28143,-3.4819 0.70033,-5.79985 -7.63343,-11.19093 -12.00922,-7.76873 -12.4516,-10.81253 -2.98612,-20.54597 7.00316,-7.20141 6.48171,-7.32157 18.5638,4.27771 4.52134,4.34067 8.93513,7.89213 9.80841,7.89213 0.87329,0 2.77296,-1.01943 4.22149,-2.26541 2.13709,-1.83825 2.5018,-2.79091 1.93419,-5.05242 -0.92264,-3.67611 -9.24979,-12.69943 -15.30616,-16.58579 -9.40489,-6.0351 -16.12413,-3.58257 -24.82608,9.06155 -10.59267,15.39137 -10.72689,17.04342 -2.07412,25.52931 6.64003,6.51198 13.16109,11.31276 15.36649,11.31276 0.73557,0 2.05476,-1.09482 2.93153,-2.43294 z m 10.47947,9.7538 c 2.99939,-2.03695 23.92566,-21.96126 25.83428,-24.59731 1.20283,-1.66127 1.03509,-2.22176 -1.43709,-4.80217 -1.53937,-1.60676 -3.21666,-2.92138 -3.72729,-2.92138 -2.35685,0 -26.69739,29.23394 -26.69739,32.0646 0,2.41713 2.678,2.53098 6.02749,0.25626 z m 34.22748,6.16491 c -2.87008,-1.93282 -5.91616,-4.86369 -6.76907,-6.51303 -1.48257,-2.86698 -1.43999,-3.10956 0.96865,-5.51819 2.4264,-2.42641 2.63278,-2.46075 5.59215,-0.9304 4.69191,2.42628 10.9533,8.48126 10.9533,10.59221 0,1.85043 -3.26526,5.88364 -4.76335,5.88364 -0.41984,0 -3.11159,-1.5814 -5.98168,-3.51423 z m 8.96826,10.334 c 4.02765,-2.83647 9.72933,-10.16755 10.79346,-13.87798 1.33284,-4.64733 -1.14836,-9.21777 -7.9372,-14.62051 -5.53641,-4.40603 -12.10862,-8.32128 -13.96827,-8.32128 -1.02798,0 -26.3615,27.34023 -26.96838,29.1046 -0.42745,1.24271 3.75128,5.8995 5.28147,5.88569 0.59163,-0.005 3.05152,-1.58033 5.46642,-3.5 2.4149,-1.91966 4.84757,-3.49029 5.40593,-3.49029 0.55836,0 3.08253,2.23172 5.60927,4.95938 6.80835,7.34974 10.21739,8.15626 16.3173,3.86039 z m 19.74672,42.71644 c 0.66816,-0.80508 1.62233,-4.96758 2.12037,-9.25 1.90177,-16.3523 1.54131,-15.89344 13.54228,-17.23929 9.0069,-1.01009 10.32915,-1.93016 7.96316,-5.54111 -2.94278,-4.49126 -5.20973,-4.83599 -14.09576,-2.14352 -4.4,1.33321 -8.39283,2.05676 -8.87296,1.6079 -0.93866,-0.87753 1.81423,-5.2566 5.26503,-8.37518 1.15936,-1.04774 2.10793,-2.82632 2.10793,-3.95239 0,-2.50974 -5.7513,-8.64262 -8.10489,-8.64262 -0.9419,0 -4.08988,3.0375 -6.9955,6.75 -2.90562,3.7125 -7.87119,9.76941 -11.03458,13.4598 -6.64061,7.74688 -8.23456,10.38483 -7.47342,12.36834 0.75785,1.97491 3.30375,1.77497 6.51501,-0.51165 4.24455,-3.02239 7.72948,-3.53495 10.71849,-1.57647 2.4939,1.63406 2.57951,1.98527 1.91622,7.86023 -0.38187,3.38236 -0.93517,7.35742 -1.22956,8.83346 -0.39916,2.00134 0.11726,3.33623 2.03103,5.25 2.94949,2.94949 3.93417,3.14241 5.62715,1.1025 z m 27.38294,17.49294 c -5.96943,-3.42372 -9.35289,-7.29283 -9.35289,-10.69539 0,-3.12949 2.38295,-3.95036 6.87598,-2.36862 8.17306,2.87726 15.0257,11.03855 12.16388,14.48683 -1.84071,2.21792 -3.85499,1.92206 -9.68697,-1.42282 z m 11.3342,10.72085 c 1.49351,-2.3375 5.99989,-7.68582 10.01419,-11.88516 6.87062,-7.18734 7.29872,-7.90128 7.29872,-12.17226 0,-5.6855 -3.75941,-10.92852 -12.80653,-17.86048 -7.57827,-5.80652 -10.42108,-6.14713 -13.20443,-1.5821 -3.54712,5.81769 -2.80483,7.79477 5.4792,14.59388 8.43531,6.92327 10.83188,10.01145 10.35889,13.3483 -0.53066,3.7437 -2.8477,2.67187 -6.70912,-3.10353 -1.9899,-2.97624 -5.22762,-6.7044 -7.19492,-8.28478 -8.83447,-7.09697 -19.92309,-3.16215 -19.92309,7.06974 0,3.78163 3.48721,7.94515 11.36608,13.57045 3.37365,2.4087 7.15989,5.76917 8.41386,7.4677 1.25396,1.69853 2.71008,3.08824 3.23581,3.08824 0.52573,0 2.17783,-1.9125 3.67134,-4.25 z" />
  <path
     style="fill:#ffffff"
     d="m 333.01319,101.98306 c 1.98052,-5.803789 2.46366,-19.889959 0.6616,-19.289279 -0.6227,0.20757 -2.25143,3.48913 -3.6194,7.29235 -1.36798,3.80323 -3.59058,8.66278 -4.93911,10.798989 -3.18046,5.03818 -2.47899,6.91505 2.43264,6.50878 3.53231,-0.29217 3.86053,-0.61117 5.46427,-5.31084 z"
     id="path244" />
  <path
     style="fill:#ffffff"
     d="m 217.30696,100.46936 c 0,-2.143499 -2.90567,-1.833899 -3.32712,0.35451 -0.25736,1.3364 0.14991,1.74367 1.48631,1.48631 1.01244,-0.19498 1.84081,-1.02335 1.84081,-1.84082 z"
     id="path3844" />
  <path
     style="fill:#ffffff;stroke:none;stroke-width:1px;stroke-linecap:butt;stroke-linejoin:miter;stroke-opacity:1"
     d="m 70.813247,363.8818 5.591767,99.99865"
     id="path2027"
     inkscape:connector-curvature="0"
     sodipodi:nodetypes="cc" />
  <path
     style="fill:#ffffff;stroke:none;stroke-width:0.40502536;stroke-linecap:butt;stroke-linejoin:miter;stroke-opacity:1"
     d="m 400.08725,509.73019 c -6.15046,-0.811 -15.72856,-1.68208 -27.33921,-2.48637 -3.78699,-0.26234 -16.63642,-0.50202 -28.55429,-0.53264 -23.26778,-0.0598 -23.8267,-0.10118 -30.57942,-2.26519 -3.8059,-1.21965 -14.54019,-6.33141 -21.98395,-10.46893 -5.52852,-3.07296 -25.09966,-12.30335 -35.16488,-16.5849 -27.99207,-11.90729 -53.84217,-19.29253 -89.06532,-25.44552 -5.97961,-1.04455 -7.27856,-1.13088 -16.80855,-1.11721 -14.67768,0.0211 -22.95253,1.15625 -42.45883,5.82468 -15.915525,3.80905 -25.686532,5.69232 -29.534433,5.6925 -1.67159,8e-5 -1.721421,-0.038 -1.723569,-1.31625 -0.0012,-0.72399 -1.184921,-22.36753 -2.630453,-48.09676 -1.445533,-25.72924 -2.629237,-47.19052 -2.630453,-47.69174 l -0.0022,-0.91131 h 27.294281 c 38.802667,0 45.510877,-0.51245 66.037287,-5.04466 22.22316,-4.90685 36.40775,-6.69525 53.1333,-6.69904 10.12905,-0.002 13.19275,0.39161 20.67006,2.65764 15.81446,4.79263 31.00131,13.62176 45.30087,26.33642 2.22764,1.98073 7.51322,6.98792 11.74574,11.12707 12.21275,11.94337 14.02083,13.17538 36.04725,24.56235 6.90569,3.57002 14.56067,7.6795 17.01107,9.13217 2.4504,1.45268 8.92068,5.14306 14.3784,8.20085 15.42788,8.64375 23.93982,14.81267 33.23513,24.0867 10.6108,10.58651 13.12964,15.8779 11.75569,24.69548 -0.6698,4.29863 -2.75717,8.52801 -4.20891,8.52801 -0.66411,0 0.0166,-3.27778 1.34579,-6.4804 2.03493,-4.90303 2.01848,-6.03463 -0.1501,-10.32815 -4.74978,-9.40397 -14.0948,-17.6186 -20.04305,-17.6186 -4.63852,0 -7.84119,2.84197 -12.47595,11.0709 -3.20879,5.69714 -4.69371,7.56026 -6.02557,7.56026 -2.50647,0 -19.85736,-6.94671 -40.49285,-16.21197 -17.80335,-7.99364 -32.60509,-13.96814 -37.09555,-14.97306 -2.77797,-0.62168 -3.74774,-0.21491 -4.43224,1.85913 -0.55118,1.67011 -0.2454,4.36494 0.65064,5.73411 0.70082,1.07085 5.22054,3.39892 13.94296,7.1819 8.16418,3.54086 43.94577,17.99043 53.51589,21.61114 8.7804,3.32194 14.2366,5.65294 23.78307,10.16063 11.81322,5.578 21.37692,9.20148 25.42084,9.63141 2.83266,0.30116 5.54184,-0.66941 8.45824,-3.03018 4.4321,-3.58769 6.94433,-8.40564 7.44978,-14.28716 0.24994,-2.90844 0.41974,-3.43928 1.35835,-4.24664 1.34948,-1.16078 5.54158,-2.11422 18.53251,-4.215 18.12778,-2.93148 21.3281,-3.71382 27.33921,-6.68323 2.89593,-1.43055 8.72829,-4.63806 12.96081,-7.12779 13.48929,-7.93493 18.34137,-10.04894 21.93419,-9.55649 2.26454,0.31039 4.68379,1.55062 5.81159,2.97933 1.17024,1.4825 0.96671,4.27812 -0.55311,7.5974 -3.12542,6.82586 -11.71479,17.00992 -17.61115,20.88084 -5.79777,3.80617 -29.99164,15.31655 -43.80616,20.84105 -11.75373,4.70037 -17.68834,5.92722 -29.56686,6.11227 -6.44897,0.10047 -9.61441,-0.0436 -14.17588,-0.64505 z"
     id="path5738"
     inkscape:connector-curvature="0" />
  <path
     style="fill:#ffffff;stroke:none;stroke-width:0.40502536;stroke-linecap:butt;stroke-linejoin:miter;stroke-opacity:1"
     d="m 403.32745,510.09328 c -18.01426,-2.38606 -33.88475,-3.28599 -59.74124,-3.3876 l -22.2764,-0.0875 -3.87756,-1.03295 c -6.31641,-1.68264 -11.38815,-3.9938 -28.92949,-13.183 -5.31335,-2.78345 -20.10366,-9.79324 -27.74424,-13.14925 -29.13043,-12.79507 -56.00293,-20.68233 -92.34578,-27.10408 -7.12066,-1.25822 -7.98602,-1.32356 -17.41609,-1.31511 -14.36726,0.0129 -23.00179,1.13782 -40.09751,5.22406 -16.934759,4.04777 -28.44434,6.28863 -32.300773,6.28881 -1.607745,8e-5 -1.721385,-0.0734 -1.72178,-1.11374 -2.32e-4,-0.6126 -1.184931,-22.24191 -2.632664,-48.06513 -1.447734,-25.82321 -2.632243,-47.35819 -2.632243,-47.8555 v -0.9042 l 31.89575,-0.20227 c 38.36641,-0.2433 40.91135,-0.43719 59.43747,-4.52836 23.37869,-5.16278 34.22072,-6.62345 51.64073,-6.9572 9.82179,-0.18817 12.597,-0.11547 15.59348,0.40851 13.79465,2.4122 31.05629,10.49686 44.89177,21.02552 5.55752,4.22921 11.15055,9.20519 19.56364,17.40531 13.88363,13.53216 13.97837,13.59654 39.63611,26.93947 5.56909,2.89613 12.76842,6.8093 15.9985,8.69592 3.23008,1.88663 9.42696,5.41106 13.77086,7.83207 14.35488,8.00049 23.457,14.67569 32.80705,24.05965 5.50361,5.52356 9.01987,10.06363 10.53896,13.60752 2.16933,5.06086 1.02123,14.95527 -2.12381,18.30301 -0.47348,0.50399 -1.03536,0.91635 -1.24862,0.91635 -0.66495,0 -0.0405,-2.89161 1.5299,-7.08445 1.7938,-4.78929 1.75126,-5.5092 -0.60097,-10.17006 -3.15142,-6.24443 -9.67948,-13.14632 -14.98089,-15.83877 -1.82304,-0.92588 -2.75463,-1.13136 -5.12918,-1.13136 -2.57489,0 -3.09926,0.13829 -4.65779,1.22842 -2.20243,1.5405 -5.2622,5.57504 -8.03503,10.59481 -2.53006,4.58026 -4.19575,6.60542 -5.43293,6.60542 -2.64951,0 -18.56323,-6.37524 -41.90398,-16.78728 -17.73,-7.90914 -30.90033,-13.21563 -35.81759,-14.43135 -2.62193,-0.64823 -3.72363,-0.12709 -4.38287,2.07325 -0.62702,2.09281 0.0374,5.07886 1.38095,6.20599 2.89115,2.42548 28.6567,13.20854 73.39901,30.718 2.89593,1.1333 8.18151,3.42 11.74573,5.08157 16.93399,7.89428 26.54624,11.64891 31.01938,12.11644 2.03376,0.21257 2.65596,0.0893 4.93723,-0.97825 5.97765,-2.79728 10.82382,-10.37707 10.82382,-16.92931 0,-2.74793 0.97862,-4.00803 3.76874,-4.85276 1.15727,-0.35037 8.39215,-1.70846 16.07751,-3.01798 17.09179,-2.91229 20.56694,-3.66076 24.39363,-5.25381 2.84174,-1.18302 9.29758,-4.72468 22.03406,-12.0878 6.54383,-3.7831 11.08194,-5.72772 14.09144,-6.03833 2.57487,-0.26575 5.80207,0.98208 7.37527,2.85172 0.89774,1.06688 1.02216,1.53774 0.87505,3.31153 -0.51345,6.19167 -10.8377,20.02957 -18.90516,25.33916 -5.2964,3.48584 -26.06079,13.4721 -40.80191,19.62295 -13.8653,5.78541 -21.78521,7.50609 -34.17396,7.42464 -3.6756,-0.0242 -7.86761,-0.20086 -9.31558,-0.39265 z"
     id="path5740"
     inkscape:connector-curvature="0" />
  <path
     style="fill:#ffffff;stroke:none;stroke-width:0.40502536;stroke-linecap:butt;stroke-linejoin:miter;stroke-opacity:1"
     d="m 404.74504,510.29928 c -16.56691,-2.38674 -35.25515,-3.46683 -61.96888,-3.5815 -14.93769,-0.0641 -21.70901,-0.23582 -23.28896,-0.59053 -5.90471,-1.32563 -10.52293,-3.28747 -24.90906,-10.58143 -49.36738,-25.02994 -78.61759,-35.07302 -126.36791,-43.38848 -7.33908,-1.27806 -8.14568,-1.3384 -17.41609,-1.30288 -14.82956,0.0568 -22.70169,1.12705 -41.71761,5.67154 -12.377559,2.95802 -24.473351,5.34632 -28.736848,5.67403 -3.335322,0.25638 -3.462672,0.23478 -3.462672,-0.58708 0,-0.4693 -1.1842,-22.04859 -2.631556,-47.95401 -1.447355,-25.90541 -2.632054,-47.5808 -2.632664,-48.16752 l -0.0011,-1.06677 31.0857,-0.20761 c 38.63143,-0.25799 42.18171,-0.54062 62.07013,-4.94112 11.8208,-2.61546 23.6405,-4.66994 33.00957,-5.73765 4.93476,-0.56237 9.5717,-0.74 19.44122,-0.74473 12.8452,-0.006 12.99694,0.004 17.01106,1.09392 17.84496,4.84704 32.69823,12.95852 48.40053,26.43187 2.33902,2.007 7.62461,6.93523 11.74574,10.95162 14.1528,13.79311 13.95736,13.66043 40.70505,27.63308 5.12357,2.67649 11.50272,6.13979 14.17588,7.69622 2.67317,1.55643 8.6878,4.96858 13.36584,7.58256 15.50543,8.66405 24.73582,15.38063 34.22464,24.90385 5.40736,5.42697 9.00768,10.05088 10.56219,13.56511 1.64649,3.72217 1.40811,11.23873 -0.49686,15.66697 -0.85608,1.99001 -2.57362,3.93106 -3.05365,3.45103 -0.38664,-0.38665 0.35246,-3.38406 1.93642,-7.85304 l 1.32701,-3.74404 -0.67141,-2.12883 c -2.0196,-6.40352 -9.83932,-15.57626 -16.14289,-18.93602 -6.98449,-3.7227 -11.48004,-1.23697 -17.81412,9.84997 -3.01796,5.28252 -4.53765,7.15974 -5.79614,7.15974 -2.64778,0 -16.96038,-5.69905 -39.91993,-15.89548 -7.01707,-3.11631 -16.49466,-7.20629 -21.06132,-9.08885 -15.02129,-6.19238 -19.22291,-7.34652 -20.48119,-5.62597 -1.43149,1.95738 -0.96888,6.01684 0.88106,7.7313 2.24697,2.08242 32.23147,14.63537 72.05091,30.16395 3.56423,1.38996 9.39659,3.89063 12.96081,5.55705 10.07681,4.71132 20.66555,9.21239 25.11158,10.67445 7.40017,2.43353 10.82972,1.74511 15.73296,-3.15812 3.59099,-3.591 5.93589,-8.92533 5.93589,-13.50337 0,-2.51696 1.05776,-3.81839 3.76874,-4.63692 1.15727,-0.34942 8.48328,-1.72407 16.28002,-3.05478 16.65299,-2.84226 21.46561,-3.93589 25.47775,-5.78961 1.62722,-0.75182 8.46605,-4.51499 15.19741,-8.3626 16.27797,-9.30442 19.62275,-10.45993 24.16085,-8.3468 2.96997,1.38295 3.9379,2.76863 3.72741,5.33609 -0.50211,6.12492 -10.7273,19.87536 -18.78998,25.268 -6.91499,4.62505 -38.87237,19.46142 -50.0825,23.25106 -8.12185,2.74564 -13.13097,3.55302 -22.9799,3.70394 -4.78942,0.0734 -9.25483,0.0547 -9.92312,-0.0416 z"
     id="path5742"
     inkscape:connector-curvature="0" />
  <path
     style="fill:#ffffff;fill-opacity:1;stroke:none;stroke-width:0.40502536;stroke-linecap:butt;stroke-linejoin:miter;stroke-opacity:1"
     d="m 399.88473,509.75954 c -15.2041,-2.00589 -31.4017,-2.84109 -58.32365,-3.00734 -26.74273,-0.16515 -23.95896,0.52569 -49.00439,-12.16143 -46.31557,-23.46181 -75.1789,-33.48379 -119.68867,-41.55853 -11.73456,-2.12883 -17.6614,-2.55442 -28.42929,-2.04142 -12.60238,0.60038 -18.3583,1.53621 -38.52649,6.26381 -18.083518,4.23893 -29.032244,5.99071 -29.037404,4.64594 -0.0011,-0.28751 -1.009478,-18.68799 -2.301398,-42.00998 -0.108001,-1.94965 -0.217984,-3.9337 -0.329525,-5.94443 -1.445812,-26.06338 -2.629534,-47.88919 -2.630492,-48.50179 l -0.0017,-1.11382 22.377651,-0.009 c 23.538568,-0.009 42.322558,-0.47282 49.109328,-1.21169 5.94269,-0.64697 12.50978,-1.80668 20.69545,-3.65471 14.68228,-3.31472 28.73717,-5.5682 40.24057,-6.45194 8.35183,-0.64162 22.7329,-0.53582 26.94218,0.19822 5.95414,1.03831 16.30371,4.70734 23.9088,8.4759 14.35622,7.11398 22.72487,13.39304 39.69248,29.78156 13.32441,12.86967 15.57562,14.44577 35.03469,24.52828 9.28351,4.81015 24.35727,13.15827 39.28746,21.75809 10.23983,5.89816 19.33653,12.77904 27.16905,20.55107 6.07615,6.02922 9.04392,9.72994 11.01705,13.73794 1.24288,2.52465 1.30335,2.86684 1.29254,7.31486 -0.0133,5.45396 -0.83786,8.855 -2.69247,11.10497 -0.6616,0.80263 -1.3719,1.45933 -1.57845,1.45933 -0.67232,0 -0.38068,-2.16702 0.68135,-5.06282 2.28046,-6.21798 2.32472,-6.47304 1.55058,-8.93425 -1.22281,-3.88763 -4.42445,-8.53581 -9.05877,-13.15166 -6.38226,-6.3568 -10.88937,-8.34536 -15.19128,-6.70245 -2.60573,0.99514 -6.07166,4.91578 -9.37595,10.60605 -3.46176,5.96143 -4.71631,7.44914 -6.28164,7.44914 -2.31419,0 -19.82926,-7.01309 -40.26218,-16.1211 -19.82641,-8.83766 -33.92456,-14.45771 -38.16487,-15.21392 -1.00767,-0.17971 -1.5617,-0.0146 -2.41568,0.71998 -0.95204,0.8189 -1.10789,1.25939 -1.10639,3.12706 0.003,3.45506 0.83037,4.43127 5.82055,6.86563 7.99777,3.90155 33.69511,14.4701 66.80814,27.4762 4.09766,1.60948 12.02603,5.0304 17.61861,7.60206 17.07658,7.85239 25.77015,10.96714 29.20451,10.46346 3.97518,-0.58299 8.43007,-4.07705 11.29311,-8.8574 1.46871,-2.45227 2.68026,-6.74909 2.68026,-9.50564 0,-2.19493 1.18401,-3.55787 3.76874,-4.3383 1.15727,-0.34942 7.38971,-1.53863 13.84987,-2.64268 15.99689,-2.7339 21.73175,-3.91854 25.34846,-5.23617 3.2091,-1.16913 8.17152,-3.79071 18.39428,-9.71743 9.53717,-5.52926 11.93075,-6.76547 15.25985,-7.88124 4.06439,-1.36219 5.70746,-1.32795 8.72903,0.18194 2.82703,1.4127 3.56702,2.64853 3.25316,5.43308 -0.68429,6.07086 -10.9802,19.6952 -18.87309,24.97428 -3.68824,2.46685 -20.14926,10.61706 -32.06294,15.87506 -21.11187,9.31755 -26.69328,10.80975 -41.31259,11.04506 -6.78973,0.10928 -9.95717,-0.0246 -14.3784,-0.60794 z"
     id="path5744"
     inkscape:connector-curvature="0"
     sodipodi:nodetypes="cssscscsscccsssccsssssccscccccsscccscscsscsscccccsscc" />
</svg>
