<?xml version="1.0" encoding="UTF-8" standalone="no"?>
<!-- Created with Inkscape (http://www.inkscape.org/) -->

<svg
   xmlns:dc="http://purl.org/dc/elements/1.1/"
   xmlns:cc="http://creativecommons.org/ns#"
   xmlns:rdf="http://www.w3.org/1999/02/22-rdf-syntax-ns#"
   xmlns:svg="http://www.w3.org/2000/svg"
   xmlns="http://www.w3.org/2000/svg"
   xmlns:sodipodi="http://sodipodi.sourceforge.net/DTD/sodipodi-0.dtd"
   xmlns:inkscape="http://www.inkscape.org/namespaces/inkscape"
   width="48.758415mm"
   height="11.94081mm"
   viewBox="0 0 48.758415 11.94081"
   version="1.1"
   id="svg136"
   inkscape:version="0.92.5 (2060ec1f9f, 2020-04-08)"
   sodipodi:docname="sirka.svg">
  <defs
     id="defs130" />
  <sodipodi:namedview
     id="base"
     pagecolor="#ffffff"
     bordercolor="#666666"
     borderopacity="1.0"
     inkscape:pageopacity="0.0"
     inkscape:pageshadow="2"
     inkscape:zoom="1.979899"
     inkscape:cx="-29.662803"
     inkscape:cy="43.854087"
     inkscape:document-units="mm"
     inkscape:current-layer="layer1"
     showgrid="false"
     inkscape:window-width="1848"
     inkscape:window-height="1016"
     inkscape:window-x="1992"
     inkscape:window-y="27"
     inkscape:window-maximized="1" />
  <metadata
     id="metadata133">
    <rdf:RDF>
      <cc:Work
         rdf:about="">
        <dc:format>image/svg+xml</dc:format>
        <dc:type
           rdf:resource="http://purl.org/dc/dcmitype/StillImage" />
        <dc:title></dc:title>
      </cc:Work>
    </rdf:RDF>
  </metadata>
  <g
     inkscape:label="Layer 1"
     inkscape:groupmode="layer"
     id="layer1"
     transform="translate(-57.060714,-90.083988)">
    <path
       inkscape:connector-curvature="0"
       id="path246"
       style="fill:#000000;stroke-width:0.26458332"
       d="m 66.465908,100.51807 c -0.164047,-1.089107 -0.884681,-1.26747 -3.479173,-0.861135 -3.738751,0.585545 -4.362789,0.06319 -4.212322,-3.525907 0.111325,-2.65544 -0.01275,-2.587181 4.415932,-2.430031 1.657284,0.05881 3.154175,-0.01905 3.326422,-0.173085 0.172248,-0.154007 0.367163,-0.690091 0.433141,-1.191303 0.09734,-0.73946 0.0013,-0.991681 -0.509505,-1.337644 -0.830273,-0.562371 -4.064017,-0.873629 -5.943952,-0.572123 -2.919338,0.468204 -3.81214,2.1369 -3.298702,6.165454 0.624996,4.903844 0.889865,5.253384 4.093057,5.401214 2.458092,0.11345 4.590947,-0.0897 5.025943,-0.47858 0.145083,-0.12972 0.212203,-0.57832 0.149159,-0.99686 z m 3.787091,0.0758 c 0.232385,-0.930719 0.846207,-8.551015 0.757788,-9.407547 -0.05571,-0.539789 -0.187651,-0.620762 -1.130325,-0.693748 -0.586982,-0.04544 -1.149651,-0.0089 -1.250368,0.0811 -0.464868,0.415636 -0.110346,10.474295 0.388845,11.032615 0.426265,0.47674 0.974559,0.0269 1.23406,-1.01242 z m 7.838275,-4.820122 c -0.906962,0.124908 -2.024641,0.084 -2.48373,-0.0909 -0.798027,-0.304035 -0.832406,-0.359389 -0.782088,-1.259237 0.05068,-0.906494 0.08533,-0.949665 0.938923,-1.169706 1.353317,-0.348868 3.656135,-0.258786 4.028404,0.157578 0.326327,0.364979 0.393549,1.736332 0.09807,2.000523 -0.08281,0.07403 -0.892617,0.236822 -1.799573,0.361738 z m 3.591335,0.456715 c 0.294203,-1.269755 0.125955,-3.721249 -0.318499,-4.640763 -0.55668,-1.151699 -1.852082,-1.615612 -4.143912,-1.484029 -1.869021,0.10731 -3.855797,0.494086 -4.222598,0.822041 -0.202759,0.181286 -0.378056,10.041538 -0.186609,10.496568 0.134844,0.3205 1.780299,0.50208 2.079683,0.22951 0.116027,-0.1051 0.323191,-0.84986 0.460972,-1.654366 0.13778,-0.804508 0.340621,-1.543308 0.450752,-1.641776 0.110132,-0.09847 1.001568,-0.103435 1.980973,-0.01104 2.639034,0.249004 3.453674,-0.193104 3.899238,-2.116163 z m 11.42802,4.943017 c -0.01014,-0.27663 -0.556055,-1.265918 -1.213039,-2.198424 -2.508656,-3.560726 -2.498838,-3.406657 -0.369094,-5.788516 1.598403,-1.787619 1.696945,-2.202281 0.593479,-2.497253 -1.372481,-0.366894 -1.880411,-0.03511 -3.158281,2.063031 -0.632749,1.038912 -1.292702,1.885773 -1.46656,1.881912 -0.339897,-0.0075 -0.569174,-1.356766 -0.4385,-2.580431 0.0439,-0.411118 -0.08267,-0.929209 -0.281245,-1.151317 -0.442597,-0.49502 -2.658539,-0.690423 -3.122767,-0.275361 -0.185781,0.166107 -0.271023,1.32038 -0.189419,2.565055 0.08159,1.244668 0.170334,3.315034 0.197189,4.600798 0.05639,2.699096 0.207199,3.500496 0.707121,3.757506 0.497762,0.25589 0.964659,-0.23252 1.194802,-1.24985 0.304189,-1.344686 0.901173,-2.060358 1.836111,-2.201184 0.780069,-0.117506 0.858896,-0.06333 1.764132,1.212435 0.521164,0.734479 1.113046,1.616109 1.315279,1.959159 0.27421,0.46514 0.611478,0.63736 1.326459,0.67733 1.101908,0.0616 1.330146,-0.0741 1.304333,-0.77489 z m 8.485971,-1.37873 c -1.7812,0.37743 -3.130883,0.21097 -3.730933,-0.460163 -0.551892,-0.617263 -0.22664,-1.199413 0.938513,-1.679787 2.11947,-0.873829 4.91036,-0.47256 4.95401,0.712267 0.0281,0.762083 -0.4214,1.05895 -2.16159,1.427683 z m 4.12623,0.115779 c -0.11766,-0.724437 -0.17199,-2.574052 -0.12079,-4.11027 0.0876,-2.629291 0.0462,-2.845602 -0.70699,-3.688023 -1.00265,-1.121409 -2.66879,-1.492569 -5.675721,-1.264357 -2.518744,0.191161 -3.139531,0.625315 -2.883468,2.016579 0.326329,1.773036 0.821401,2.032091 3.654394,1.912245 2.884725,-0.122036 3.902035,0.06444 4.397205,0.806023 0.55555,0.831994 -0.0905,1.0292 -1.87063,0.571028 -0.91736,-0.236119 -2.21344,-0.400486 -2.880177,-0.365264 -2.99409,0.158166 -4.487308,2.889784 -2.682887,4.90793 0.666896,0.7459 2.088967,0.95214 4.635044,0.67222 1.0902,-0.11987 2.42964,-0.12475 2.97651,-0.0107 0.54687,0.11388 1.07916,0.13121 1.18286,0.0384 0.10368,-0.0926 0.0923,-0.76129 -0.0248,-1.485725 z" />
  </g>
</svg>
